<!-- Generated by IcoMoon.io -->
<svg version="1.1" xmlns="http://www.w3.org/2000/svg" width="32" height="32" viewBox="0 0 32 32">
<title>arduino</title>
<path d="M23.783 23.55c-2.044 0-3.8-0.7-5.33-2.1-0.95-0.87-1.733-1.937-2.454-3.046-0.72 1.1-1.504 2.175-2.454 3.046-1.653 1.515-3.547 2.197-5.8 2.087-4.269-0.017-7.745-3.394-7.745-7.543 0-4.16 3.495-7.544 7.8-7.544 0.044-0.001 0.096-0.001 0.148-0.001 2.293 0 4.374 0.907 5.905 2.382l-0.003-0.002c0.826 0.77 1.524 1.66 2.16 2.593 0.636-0.933 1.334-1.824 2.16-2.593 1.528-1.472 3.609-2.379 5.902-2.379 0.052 0 0.104 0 0.156 0.001l-0.008-0c4.296 0 7.8 3.384 7.8 7.544 0 4.148-3.476 7.526-7.755 7.544-0.136 0.007-0.295 0.011-0.454 0.011-0.003 0-0.005 0-0.008 0h0zM17.563 15.894c0.853 1.383 1.68 2.67 2.688 3.594 1.138 1.043 2.337 1.472 3.887 1.4l0.070-0.002c2.827 0 5.128-2.2 5.128-4.88s-2.3-4.88-5.128-4.88c-0.040-0.001-0.087-0.002-0.135-0.002-1.596 0-3.043 0.636-4.103 1.668l0.001-0.001c-0.912 0.848-1.665 1.935-2.408 3.116zM7.8 11.113c-2.827 0-5.128 2.2-5.128 4.88s2.3 4.88 5.128 4.88l0.070 0.002c1.55 0.082 2.75-0.347 3.887-1.4 1.008-0.924 1.836-2.2 2.688-3.594-0.744-1.18-1.497-2.268-2.408-3.116-1.22-1.135-2.567-1.665-4.237-1.665zM24.562 15.027v-1.444h-1.502v1.444h-1.444v1.496h1.444v1.455h1.503v-1.455h1.444v-1.496h-1.444zM5.628 15h4.746v1.542h-4.746z"></path>
</svg>
