<!-- Generated by IcoMoon.io -->
<svg version="1.1" xmlns="http://www.w3.org/2000/svg" width="32" height="32" viewBox="0 0 32 32">
<title>behance</title>
<path d="M28.235 0h-24.469c-2.079 0-3.765 1.686-3.765 3.765v0 24.469c0 2.079 1.686 3.765 3.765 3.765v0h24.469c0 0 0.001 0 0.001 0 2.079 0 3.764-1.685 3.764-3.764 0-0 0-0.001 0-0.001v0-24.469c0-0 0-0.001 0-0.001 0-2.079-1.685-3.764-3.764-3.764-0 0-0.001 0-0.001 0h0zM20.13 8h7.226v2.064h-7.226zM16.211 19.518c0 5.436-5.655 5.257-5.655 5.257h-9.266v-17.807h9.266c2.815 0 5.039 1.556 5.039 4.741s-2.718 3.389-2.718 3.389c3.582 0 3.334 4.42 3.334 4.42zM29.973 19.097h-9.202c0 3.317 3.125 3.113 3.125 3.113 2.823 0 2.842-1.758 2.839-1.819h3.122c0 4.978-6.074 4.632-6.074 4.632-7.291 0-6.821-6.787-6.821-6.787s-0.008-6.821 6.821-6.821c7.189-0.003 6.19 7.697 6.19 7.682z"></path>
<path d="M10.145 13.935c0.82 0 1.54-0.262 1.54-2.066s-1.227-1.805-1.227-1.805h-5.040v3.871z"></path>
<path d="M10.474 16.774h-5.055v4.646h4.827c0.725-0.020 2.065-0.248 2.060-2.258-0.001-2.413-1.832-2.388-1.832-2.388z"></path>
<path d="M23.861 14.039c-2.743 0-3.125 2.735-3.125 2.735h5.832s0.030-2.735-2.707-2.735z"></path>
</svg>
