<!-- Generated by IcoMoon.io -->
<svg version="1.1" xmlns="http://www.w3.org/2000/svg" width="32" height="32" viewBox="0 0 32 32">
<title>bootstrap</title>
<path d="M18.925 16.401c-0.584-0.192-1.424-0.151-2.52-0.151h-4.405v5.75h4.711c0.736 0 1.253-0.079 1.551-0.134 0.525-0.094 0.963-0.276 1.316-0.495s0.642-0.551 0.869-0.97c0.227-0.419 0.341-0.909 0.341-1.457 0-0.642-0.165-1.135-0.494-1.609s-0.785-0.741-1.369-0.933zM18.32 13.772c0.579-0.172 1.016-0.473 1.31-0.872s0.441-0.908 0.441-1.511c0-0.572-0.137-1.079-0.412-1.514s-0.666-0.603-1.175-0.764c-0.509-0.16-1.383-0.111-2.62-0.111h-3.865v5h4.147c1.011 0 1.735-0.095 2.174-0.228zM31.5 4.656c0-2.296-1.861-4.156-4.156-4.156h-22.938c-2.296 0-4.156 1.861-4.156 4.156v22.938c0 2.296 1.861 4.156 4.156 4.156h22.938c2.296 0 4.156-1.861 4.156-4.156v-22.938zM22.638 21.186c-0.34 0.693-0.762 1.228-1.263 1.604s-1.13 0.695-1.886 0.887c-0.756 0.192-1.682 0.323-2.778 0.323h-6.961v-17.25h6.855c1.316 0 2.371 0.152 3.166 0.5s1.418 0.874 1.869 1.599c0.45 0.725 0.675 1.477 0.675 2.268 0 0.736-0.2 1.427-0.599 2.077s-1.003 1.174-1.809 1.573c1.041 0.306 1.843 0.826 2.402 1.562s0.84 1.605 0.84 2.608c0 0.807-0.17 1.556-0.511 2.249z"></path>
</svg>
