<!-- Generated by IcoMoon.io -->
<svg version="1.1" xmlns="http://www.w3.org/2000/svg" width="32" height="32" viewBox="0 0 32 32">
<title>codersrank</title>
<path d="M17.161 5.964l-16.053 10.106c-0.756 0.457-1.126 0.969-1.108 1.537v1.538c0.018 0.568 0.396 1.071 1.135 1.51l7.945 4.586c0.047 0.028 0.1 0.045 0.154 0.050s0.109-0.002 0.161-0.020c0.051-0.018 0.098-0.048 0.137-0.086s0.069-0.085 0.088-0.136l1.784-4.311-3.783-2.142c-0.109-0.057-0.201-0.142-0.265-0.246-0.048-0.079-0.081-0.166-0.095-0.257s-0.010-0.184 0.012-0.274c0.022-0.090 0.062-0.174 0.117-0.248s0.124-0.136 0.204-0.183l6.946-4.257 2.864-6.974c0.011-0.033 0.012-0.068 0.003-0.101s-0.029-0.063-0.056-0.084c-0.027-0.021-0.060-0.034-0.094-0.035s-0.068 0.009-0.096 0.028h0.001z"></path>
<path d="M30.349 11.593l-7.836-4.75c-0.045-0.028-0.096-0.047-0.15-0.054s-0.107-0.002-0.158 0.013-0.098 0.042-0.139 0.078c-0.040 0.035-0.072 0.079-0.094 0.128l-1.837 4.311 3.729 2.225c0.107 0.058 0.197 0.146 0.259 0.252s0.096 0.228 0.096 0.352c0 0.124-0.033 0.245-0.096 0.352s-0.151 0.194-0.259 0.253l-6.999 4.119-2.973 6.92c-0.029 0.033-0.043 0.076-0.041 0.119s0.022 0.084 0.054 0.114c0.016 0.014 0.034 0.026 0.055 0.033s0.042 0.010 0.063 0.009c0.021-0.001 0.042-0.007 0.062-0.016s0.036-0.023 0.050-0.039l5.135-3.103 2.027 2.911c0.044 0.067 0.104 0.122 0.175 0.16s0.15 0.059 0.23 0.059h4.865c0.089 0 0.176-0.024 0.252-0.070s0.137-0.112 0.178-0.191c0.042-0.079 0.061-0.168 0.057-0.257s-0.032-0.176-0.081-0.251l-3.297-5.053 6.675-4.036c0.757-0.458 1.135-0.97 1.135-1.538v-1.51c0-0.568-0.378-1.080-1.135-1.538h-0.001z"></path>
</svg>
