<!-- Generated by IcoMoon.io -->
<svg version="1.1" xmlns="http://www.w3.org/2000/svg" width="32" height="32" viewBox="0 0 32 32">
<title>codepen</title>
<path d="M16 13.589l-3.605 2.389 3.605 2.389 3.605-2.389z"></path>
<path d="M10.539 14.741l4.437-2.944v-4.8l-8.043 5.355z"></path>
<path d="M17.024 6.848v4.949l4.437 2.944 3.712-2.453z"></path>
<path d="M6.144 14.315v3.328l2.517-1.664z"></path>
<path d="M27.2 0h-22.4c-2.645 0-4.8 2.155-4.8 4.8v22.4c0 2.645 2.155 4.8 4.8 4.8h22.4c2.645 0 4.8-2.155 4.8-4.8v-22.4c0-2.645-2.155-4.8-4.8-4.8zM28.117 19.627c0 0.341-0.171 0.661-0.448 0.853l-10.987 7.339c-0.341 0.235-0.811 0.235-1.152 0l-10.88-7.275c-0.491-0.213-0.747-0.768-0.576-1.28v-6.592c-0.171-0.512 0.064-1.067 0.576-1.28l10.88-7.275c0.341-0.235 0.789-0.235 1.152 0l10.987 7.339c0.277 0.192 0.448 0.512 0.448 0.853v7.317z"></path>
<path d="M23.339 15.979l2.731 1.792v-3.605z"></path>
<path d="M21.461 17.216l-4.437 2.944v4.949l8.149-5.44z"></path>
<path d="M14.976 20.16l-4.437-2.944-3.605 2.368 8.043 5.376z"></path>
</svg>
