<!-- Generated by IcoMoon.io -->
<svg version="1.1" xmlns="http://www.w3.org/2000/svg" width="32" height="32" viewBox="0 0 32 32">
<title>cplusplus</title>
<path d="M28.85 7.675l-12.075-6.95c-0.2-0.125-0.475-0.175-0.775-0.175s-0.575 0.075-0.775 0.175l-12 6.975c-0.425 0.25-0.725 0.875-0.725 1.35v13.925c0 0.25 0.050 0.575 0.225 0.825 0 0.025 0.025 0.025 0.025 0.050l4.775-2.775c0-0.025-0.025-0.025-0.025-0.050-0.875-1.475-1.375-3.2-1.375-5.025 0-5.45 4.425-9.875 9.875-9.875 3.675 0 6.85 2 8.55 4.975l-3.25 1.875c-1.050-1.85-3.025-3.1-5.3-3.1-3.375 0-6.125 2.75-6.125 6.125 0 1.15 0.325 2.225 0.875 3.125 0 0.025 0.025 0.050 0.025 0.050l18.675-10.85c-0.15-0.275-0.375-0.5-0.6-0.65z"></path>
<path d="M29.375 8.4c0-0.025-0.025-0.050-0.050-0.075l-4.775 2.775-3.25 1.875-10.55 6.15c0 0.025 0.025 0.050 0.025 0.050 1.075 1.75 3.025 2.925 5.225 2.925 2.275 0 4.275-1.25 5.325-3.1l3.225 1.9c-1.7 2.95-4.9 4.95-8.55 4.95-3.6 0-6.75-1.925-8.475-4.8 0-0.025-0.025-0.025-0.025-0.050l-4.825 2.825c0.125 0.2 0.3 0.375 0.475 0.475l12.050 6.975c0.2 0.125 0.475 0.175 0.775 0.175s0.575-0.075 0.775-0.175l12-6.975c0.425-0.25 0.725-0.875 0.725-1.35v-13.925c0-0.2-0.025-0.425-0.1-0.625zM24.25 16.55h-1.325v1.3h-1.1v-1.3h-1.3v-1.1h1.3v-1.325h1.1v1.325h1.325v1.1zM28.875 16.55h-1.325v1.3h-1.1v-1.3h-1.3v-1.1h1.3v-1.325h1.1v1.325h1.325v1.1z"></path>
<path d="M24.575 11.125l-3.25 1.875c0 0 0 0 0-0.025l3.25-1.875c0 0 0 0.025 0 0.025z"></path>
</svg>
