<!-- Generated by IcoMoon.io -->
<svg version="1.1" xmlns="http://www.w3.org/2000/svg" width="32" height="32" viewBox="0 0 32 32">
<title>css3</title>
<path d="M2.19 0.25l2.514 28.221 11.28 3.145 11.311-3.157 2.516-28.209h-27.62zM24.588 6.715l-0.837 9.401 0.003 0.051-0.003 0.117v-0.001l-0.595 6.573-0.066 0.584-7.096 1.966-7.078-1.972-0.479-5.435h3.471l0.246 2.764 3.846 1.044 3.861-1.057 0.408-4.5h-8.071l-0.069-0.761-0.158-1.782-0.083-0.957h8.687l0.316-3.5h-13.232l-0.069-0.76-0.157-1.783-0.083-0.957h17.32l-0.083 0.965z"></path>
</svg>
