<!-- Generated by IcoMoon.io -->
<svg version="1.1" xmlns="http://www.w3.org/2000/svg" width="48" height="32" viewBox="0 0 48 32">
<title>devto</title>
<path d="M14.836 12.135c-0.488-0.299-1.066-0.503-1.685-0.571l-0.018-0.002h-1.158l0.146 9.793h1.184c0.067 0.007 0.145 0.011 0.223 0.011 0.538 0 1.031-0.19 1.417-0.507l-0.004 0.003c0.492-0.492 0.492-0.705 0.492-4.404s-0.040-3.899-0.599-4.324z"></path>
<path d="M47.754 1.77c-0.148-0.362-0.365-0.669-0.637-0.916l-0.002-0.002c-0.252-0.27-0.558-0.486-0.901-0.632l-0.017-0.007c-0.314-0.135-0.68-0.213-1.064-0.213v0h-42.365c-0.384 0-0.75 0.078-1.083 0.22l0.018-0.007c-0.36 0.153-0.666 0.369-0.917 0.637l-0.001 0.001c-0.218 0.266-0.41 0.568-0.561 0.892l-0.011 0.026c-0.134 0.314-0.212 0.68-0.213 1.064v26.439c-0 0.016-0.001 0.035-0.001 0.053 0 0.343 0.079 0.668 0.219 0.958l-0.006-0.013c0.153 0.36 0.369 0.666 0.637 0.917l0.001 0.001c0.249 0.274 0.556 0.491 0.901 0.633l0.017 0.006c0.315 0.134 0.68 0.212 1.064 0.213h42.299c0.384 0 0.75-0.078 1.083-0.22l-0.018 0.007c0.691-0.322 1.234-0.866 1.549-1.537l0.008-0.019c0.135-0.314 0.213-0.68 0.213-1.064v-26.372c-0.001-0.384-0.079-0.75-0.22-1.083l0.007 0.018zM17.031 22.62c-0.852 1.211-2.129 1.557-5.043 1.557h-2.674v-15.168h2.821c3.26 0 4.258 0.359 5.176 1.849 0.492 0.852 0.572 1.131 0.639 5.109 0.146 4.471 0 5.469-0.918 6.653zM27.316 11.696h-4.963v3.539h3.047v2.555l-2.98 0.146v3.553l4.83 0.133v2.555h-3.193c-3.047 0-3.193 0-3.765-0.559l-0.559-0.572v-6.373c0-6.027 0-6.307 0.492-6.946s0.492-0.639 3.765-0.639h3.326zM36.63 22.686c-0.347 0.831-1.112 1.423-2.025 1.516l-0.010 0.001c-0.543-0.090-1.008-0.375-1.327-0.781l-0.003-0.005c-0.639-0.639-0.852-1.331-1.623-4.191-0.506-1.916-1.331-4.963-1.783-6.812l-0.918-3.26h1.557c0.224-0.029 0.483-0.045 0.745-0.045s0.521 0.016 0.775 0.048l-0.030-0.003c0 0.080 2.275 9.088 2.488 9.647 0.146 0.293 0.639-1.41 1.331-4.537l1.45-4.95 1.49-0.067c0.164-0.027 0.354-0.042 0.547-0.042 0.311 0 0.614 0.039 0.902 0.114l-0.025-0.005c0 0.293-3.34 12.707-3.553 13.306z"></path>
</svg>
