<!-- Generated by IcoMoon.io -->
<svg version="1.1" xmlns="http://www.w3.org/2000/svg" width="659" height="512" viewBox="0 0 659 512">
<title></title>
<g id="icomoon-ignore">
</g>
<path d="M557.942 42.701c-42.636-19.948-88.224-34.446-135.885-42.701-5.853 10.582-12.692 24.817-17.406 36.139-50.665-7.62-100.865-7.62-150.597 0-4.714-11.323-11.708-25.557-17.613-36.139-47.713 8.255-93.353 22.806-135.989 42.806-85.997 129.952-109.309 256.677-97.653 381.602 57.038 42.594 112.314 68.469 166.658 85.4 13.417-18.466 25.385-38.097 35.694-58.786-19.634-7.461-38.439-16.667-56.208-27.356 4.714-3.493 9.325-7.144 13.78-10.901 108.376 50.69 226.13 50.69 333.212 0 4.507 3.757 9.118 7.408 13.78 10.901-17.821 10.74-36.678 19.947-56.312 27.409 10.309 20.635 22.224 40.319 35.693 58.784 54.396-16.931 109.724-42.805 166.761-85.453 13.677-144.82-23.364-270.381-97.912-381.708zM219.912 347.581c-32.534 0-59.214-30.372-59.214-67.358s26.111-67.41 59.214-67.41c33.104 0 59.783 30.371 59.213 67.41 0.051 36.986-26.109 67.358-59.214 67.358zM438.738 347.581c-32.534 0-59.214-30.372-59.214-67.358s26.11-67.41 59.214-67.41c33.103 0 59.784 30.371 59.214 67.41 0 36.986-26.111 67.358-59.214 67.358z"></path>
</svg>
