<!-- Generated by IcoMoon.io -->
<svg version="1.1" xmlns="http://www.w3.org/2000/svg" width="32" height="32" viewBox="0 0 32 32">
<title>express</title>
<path d="M31.668 24.61c-1.14 0.29-1.845 0.012-2.477-0.938-1.42-2.128-2.988-4.157-4.5-6.225-0.195-0.267-0.398-0.53-0.65-0.863-1.79 2.415-3.578 4.715-5.255 7.107-0.6 0.855-1.23 1.227-2.35 0.925l6.73-9.033-6.265-8.158c1.078-0.21 1.823-0.103 2.482 0.863 1.457 2.13 3.065 4.157 4.668 6.303 1.613-2.138 3.2-4.168 4.7-6.277 0.602-0.855 1.25-1.18 2.332-0.865-0.82 1.088-1.622 2.158-2.43 3.22-1.090 1.432-2.16 2.883-3.29 4.285-0.402 0.5-0.337 0.825 0.023 1.298 2.090 2.747 4.155 5.523 6.282 8.358z"></path>
<path d="M0.333 15.435c0.18-0.902 0.3-1.822 0.55-2.707 1.5-5.357 7.65-7.585 11.875-4.265 2.475 1.947 3.090 4.692 2.967 7.787h-13.95c-0.21 5.553 3.787 8.905 8.883 7.195 1.787-0.6 2.84-2 3.367-3.75 0.268-0.878 0.71-1.015 1.535-0.765-0.422 2.19-1.38 4.020-3.38 5.165-3 1.715-7.282 1.16-9.535-1.223-1.33-1.4-1.895-3.143-2.145-5.025-0.037-0.3-0.115-0.595-0.175-0.892q0.008-0.76 0.008-1.52zM1.8 15.063h12.607c-0.082-4.015-2.582-6.867-6-6.893-3.75-0.030-6.445 2.755-6.607 6.893z"></path>
</svg>
