<!-- Generated by IcoMoon.io -->
<svg version="1.1" xmlns="http://www.w3.org/2000/svg" width="32" height="32" viewBox="0 0 32 32">
<title>figma</title>
<path d="M10.585 32.165c2.944 0 5.33-2.386 5.33-5.33v0-5.335h-5.33c-0.049-0.002-0.106-0.003-0.163-0.003-2.946 0-5.335 2.389-5.335 5.335s2.389 5.335 5.335 5.335c0.057 0 0.115-0.001 0.172-0.003l-0.008 0z"></path>
<path d="M5.415 15.75c0-2.899 2.35-5.25 5.25-5.25v0h5.25v10.5h-5.165c-0.031 0.001-0.068 0.001-0.105 0.001-2.888 0-5.23-2.342-5.23-5.23 0-0.007 0-0.015 0-0.022v0.001z"></path>
<path d="M5.42 5.25c0.003-2.897 2.349-5.244 5.244-5.25h5.251v10.5h-5.165c-0.024 0-0.052 0.001-0.081 0.001-0.645 0-1.263-0.112-1.837-0.317l0.038 0.012c-2.030-0.764-3.448-2.689-3.45-4.945v-0z"></path>
<path d="M15.915 0h5.25c2.899 0 5.25 2.35 5.25 5.25s-2.351 5.25-5.25 5.25v0h-5.25z"></path>
<path d="M26.75 15.93c0 2.946-2.389 5.335-5.335 5.335s-5.335-2.389-5.335-5.335c0-2.946 2.389-5.335 5.335-5.335v0c2.946 0 5.335 2.389 5.335 5.335v0z"></path>
</svg>
