<!-- Generated by IcoMoon.io -->
<svg version="1.1" xmlns="http://www.w3.org/2000/svg" width="32" height="32" viewBox="0 0 32 32">
<title>git</title>
<path d="M31.184 14.595l-13.779-13.778c-0.793-0.793-2.080-0.793-2.874 0l-2.861 2.861 3.63 3.629c0.844-0.285 1.811-0.094 2.483 0.579 0.676 0.677 0.865 1.652 0.573 2.498l3.498 3.498c0.846-0.292 1.823-0.103 2.498 0.574 0.945 0.944 0.945 2.475 0 3.42s-2.475 0.945-3.421 0c-0.71-0.711-0.886-1.755-0.526-2.63l-3.262-3.262-0 8.585c0.23 0.114 0.448 0.266 0.64 0.457 0.945 0.944 0.945 2.474 0 3.421-0.945 0.944-2.476 0.944-3.42 0-0.944-0.946-0.944-2.476 0-3.421 0.233-0.233 0.504-0.41 0.792-0.527v-8.665c-0.288-0.118-0.558-0.293-0.792-0.528-0.716-0.715-0.888-1.765-0.521-2.644l-3.578-3.578-9.448 9.447c-0.794 0.794-0.794 2.081 0 2.875l13.779 13.778c0.793 0.794 2.080 0.794 2.875 0l13.715-13.715c0.794-0.794 0.794-2.082-0-2.875z"></path>
</svg>
