<!-- Generated by IcoMoon.io -->
<svg version="1.1" xmlns="http://www.w3.org/2000/svg" width="32" height="32" viewBox="0 0 32 32">
<title>github</title>
<path d="M16 1.276c-8.337 0-15.097 6.759-15.097 15.097 0 6.671 4.326 12.329 10.324 14.326 0.754 0.14 1.031-0.328 1.031-0.726 0-0.36-0.014-1.549-0.021-2.811-4.2 0.913-5.086-1.781-5.086-1.781-0.687-1.745-1.676-2.209-1.676-2.209-1.37-0.937 0.103-0.918 0.103-0.918 1.516 0.106 2.314 1.556 2.314 1.556 1.347 2.308 3.532 1.64 4.393 1.255 0.136-0.976 0.527-1.642 0.959-2.019-3.353-0.381-6.878-1.676-6.878-7.461 0-1.648 0.59-2.995 1.556-4.053-0.157-0.38-0.674-1.915 0.146-3.995 0 0 1.268-0.406 4.152 1.548 1.204-0.335 2.496-0.503 3.779-0.509 1.282 0.006 2.575 0.174 3.782 0.508 2.881-1.953 4.148-1.548 4.148-1.548 0.822 2.079 0.305 3.615 0.148 3.995 0.968 1.057 1.554 2.404 1.554 4.053 0 5.799-3.532 7.075-6.893 7.449 0.542 0.468 1.024 1.387 1.024 2.796 0 2.020-0.017 3.646-0.017 4.143 0 0.402 0.272 0.872 1.037 0.724 5.995-1.998 10.316-7.655 10.316-14.323-0-8.338-6.76-15.097-15.097-15.097z"></path>
<path d="M6.621 22.951c-0.033 0.075-0.151 0.098-0.259 0.046-0.11-0.049-0.171-0.151-0.136-0.227 0.032-0.078 0.151-0.099 0.26-0.047 0.11 0.049 0.173 0.152 0.134 0.227zM7.232 23.634c-0.072 0.067-0.213 0.036-0.308-0.070-0.099-0.105-0.117-0.246-0.044-0.314 0.074-0.067 0.211-0.035 0.31 0.070 0.098 0.107 0.118 0.246 0.043 0.314zM7.828 24.503c-0.093 0.064-0.244 0.004-0.338-0.13-0.093-0.134-0.093-0.296 0.003-0.36 0.093-0.064 0.242-0.006 0.338 0.127 0.092 0.136 0.092 0.297-0.003 0.363zM8.643 25.343c-0.082 0.091-0.259 0.067-0.388-0.058-0.132-0.122-0.168-0.295-0.086-0.386 0.084-0.091 0.261-0.066 0.391 0.058 0.132 0.122 0.171 0.295 0.083 0.386zM9.768 25.831c-0.037 0.118-0.206 0.172-0.377 0.122-0.171-0.052-0.283-0.19-0.248-0.309s0.206-0.175 0.378-0.121c0.171 0.052 0.283 0.189 0.247 0.309zM11.004 25.921c0.004 0.125-0.141 0.227-0.32 0.23-0.181 0.004-0.327-0.097-0.329-0.219 0-0.126 0.142-0.227 0.322-0.231 0.179-0.003 0.326 0.097 0.326 0.22zM12.153 25.726c0.021 0.121-0.103 0.246-0.281 0.279-0.175 0.032-0.338-0.043-0.36-0.163-0.021-0.125 0.105-0.249 0.28-0.282 0.178-0.031 0.338 0.043 0.361 0.166z"></path>
</svg>
