<!-- Generated by IcoMoon.io -->
<svg version="1.1" xmlns="http://www.w3.org/2000/svg" width="32" height="32" viewBox="0 0 32 32">
<title>gitlab</title>
<path d="M31.654 18.078l-5.244-16.137c-0.135-0.415-0.61-0.518-0.913-0.308-0.1 0.069-0.181 0.213-0.226 0.349l-3.485 10.768h-11.572l-3.485-10.788c-0.023-0.073-0.054-0.137-0.094-0.194l0.001 0.002c-0.019-0.026-0.045-0.048-0.067-0.070-0.234-0.222-0.616-0.219-0.84 0.018-0.061 0.061-0.109 0.136-0.138 0.219l-0.001 0.004-5.244 16.136c-0.037 0.11-0.058 0.236-0.058 0.367 0 0.288 0.102 0.553 0.272 0.759l-0.002-0.002c0.065 0.079 0.138 0.153 0.223 0.215l15.219 11.057 15.218-11.057c0.301-0.22 0.494-0.572 0.494-0.968 0-0.133-0.022-0.26-0.061-0.379l0.002 0.008z"></path>
</svg>
