<!-- Generated by IcoMoon.io -->
<svg version="1.1" xmlns="http://www.w3.org/2000/svg" width="32" height="32" viewBox="0 0 32 32">
<title>gitpod</title>
<path d="M27.185 9.47l-11.225 6.5v1.53h0.5v8.34l8.5-4.765v-3.575l-6 3.41v-3.28l8.5-4.84v9.66l-11 6.3-0.5 3.385 14-8.090v-16.18z"></path>
<path d="M2.46 23.96l14 8.080v-3.29l-11-6.3v-12.785l-3-1.735zM16.46 25.72v-9.77l-8.5-4.905v9.805z"></path>
<path d="M29.96 8v0l-13.85-8-13.86 8 2.755 1.595 11.1-6.41 11.1 6.4 2.755-1.585zM16.315 6.4l-8.31 4.8 8.31 4.8 8.315-4.8z"></path>
</svg>
