<!-- Generated by IcoMoon.io -->
<svg version="1.1" xmlns="http://www.w3.org/2000/svg" width="32" height="32" viewBox="0 0 32 32">
<title>googlecloud</title>
<path d="M20.366 10.245l1.025 0.018 2.785-2.785 0.135-1.18c-2.209-1.968-5.126-3.167-8.313-3.167-5.771 0-10.641 3.926-12.083 9.245 0.304-0.212 0.954-0.053 0.954-0.053l5.566-0.915s0.286-0.474 0.431-0.45c1.274-1.396 3.102-2.269 5.133-2.269 0.001 0 0.002 0 0.003 0h-0c1.65 0.004 3.17 0.587 4.364 1.551z"></path>
<path d="M28.088 12.386c-0.647-2.385-1.979-4.492-3.778-6.089l-3.944 3.944c1.58 1.275 2.594 3.226 2.594 5.411v0.696c1.919 0 3.477 1.562 3.477 3.477 0 1.919-1.562 3.477-3.477 3.477h-6.955l-0.696 0.7v4.173l0.696 0.693h6.955c4.992-0.007 9.036-4.051 9.043-9.042v-0.001c-0.003-3.078-1.55-5.801-3.915-7.439z"></path>
<path d="M9.043 28.873h6.951v-5.571h-6.951c-0 0-0 0-0.001 0-0.519 0-1.011-0.115-1.452-0.32l0.021 0.009-1.004 0.308-2.785 2.785-0.244 0.94c1.497 1.151 3.397 1.845 5.459 1.845 0.001 0 0.003 0 0.004 0h-0z"></path>
<path d="M9.043 10.786c-4.992 0.007-9.036 4.051-9.043 9.042v0.001c0 2.937 1.407 5.548 3.583 7.202l4.032-4.032c-1.218-0.559-2.049-1.767-2.050-3.17v-0c0-1.919 1.562-3.477 3.477-3.477 1.41 0 2.622 0.85 3.17 2.050l4.032-4.032c-1.654-2.177-4.265-3.583-7.202-3.583z"></path>
</svg>
