<!-- Generated by IcoMoon.io -->
<svg version="1.1" xmlns="http://www.w3.org/2000/svg" width="32" height="32" viewBox="0 0 32 32">
<title>graphql</title>
<path d="M4.34 24.39l-1.17-0.68 13.080-22.66 1.175 0.68z"></path>
<path d="M2.75 21.605h26v1.5h-26z"></path>
<path d="M16.505 30.22l-13.090-7.56 0.68-1.16 13.090 7.545zM27.88 10.5l-13.090-7.54 0.675-1.17 13.095 7.555z"></path>
<path d="M4.1 10.5l-0.68-1.16 13.1-7.56 0.68 1.175z"></path>
<path d="M27.64 24.385l-13.090-22.665 1.2-0.68 13.065 22.67zM3.75 8.605h1.5v15h-1.5zM26.75 8.605h1.5v15h-1.5z"></path>
<path d="M16.275 29.645l-0.59-1 11.385-6.6 0.595 1z"></path>
<path d="M29.84 24c-0.503 0.859-1.421 1.427-2.473 1.427-1.577 0-2.855-1.278-2.855-2.855s1.278-2.855 2.855-2.855c0.526 0 1.018 0.142 1.441 0.39l-0.013-0.007c0.858 0.506 1.424 1.425 1.424 2.476 0 0.524-0.141 1.015-0.386 1.438l0.007-0.014zM7.075 10.85c-0.502 0.861-1.422 1.431-2.475 1.431-1.577 0-2.855-1.278-2.855-2.855s1.278-2.855 2.855-2.855c0.526 0 1.020 0.143 1.443 0.391l-0.013-0.007c0.856 0.506 1.422 1.424 1.422 2.475 0 0.522-0.14 1.012-0.384 1.434l0.007-0.014zM2.14 24c-0.241-0.41-0.384-0.903-0.384-1.43 0-1.577 1.278-2.855 2.855-2.855s2.855 1.278 2.855 2.855c0 1.053-0.57 1.972-1.418 2.467l-0.014 0.007c-0.408 0.237-0.898 0.377-1.42 0.377-1.050 0-1.969-0.565-2.468-1.408l-0.007-0.013zM24.9 10.85c-0.24-0.409-0.382-0.901-0.382-1.426 0-1.577 1.278-2.855 2.855-2.855s2.855 1.278 2.855 2.855c0 1.054-0.571 1.974-1.42 2.469l-0.014 0.007c-0.408 0.238-0.898 0.379-1.422 0.379-1.052 0-1.971-0.569-2.466-1.416l-0.007-0.014zM15.99 32c-1.574 0-2.85-1.276-2.85-2.85s1.276-2.85 2.85-2.85c1.574 0 2.85 1.276 2.85 2.85v0c-0.003 1.573-1.277 2.847-2.85 2.85h-0zM15.99 5.705c-0.781-0.006-1.487-0.324-2-0.835l0 0c-0.513-0.511-0.83-1.219-0.83-2v0c0-0.001 0-0.003 0-0.005 0-1.577 1.278-2.855 2.855-2.855s2.855 1.278 2.855 2.855c0 1.577-1.278 2.855-2.855 2.855-0.002 0-0.003 0-0.005 0h0z"></path>
</svg>
