<!-- Generated by IcoMoon.io -->
<svg version="1.1" xmlns="http://www.w3.org/2000/svg" width="32" height="32" viewBox="0 0 32 32">
<title>heroku</title>
<path d="M25.525 0.5h-19.050c-1.65 0-2.975 1.325-2.975 2.975v25.075c0 1.65 1.325 2.975 2.975 2.975h19.075c1.65 0 2.975-1.325 2.975-2.975v-25.075c-0.025-1.65-1.35-2.975-3-2.975zM9.25 27.175v-7.050l3.525 3.525-3.525 3.525zM22.5 27.25h-3.275l0.025-0.050v-12.35s0.775-2.95-9.925 1.2c-0.025 0.050-0.050-11.425-0.050-11.425l3.475-0.025v7.35s9.75-3.85 9.75 2.925v12.375zM21.2 9h-3.7c1.325-1.5 2.55-4.25 2.55-4.25h3.825s-0.65 1.75-2.675 4.25z"></path>
</svg>
