<!-- Generated by IcoMoon.io -->
<svg version="1.1" xmlns="http://www.w3.org/2000/svg" width="32" height="32" viewBox="0 0 32 32">
<title>insomnia</title>
<path d="M16 0c-8.8 0-16 7.2-16 16s7.2 16 16 16c8.8 0 16-7.2 16-16s-7.2-16-16-16zM16 1.6c7.9 0 14.4 6.4 14.4 14.4 0 7.9-6.4 14.4-14.4 14.4-7.9 0-14.4-6.5-14.4-14.4s6.5-14.4 14.4-14.4z"></path>
<path d="M16.2 4.6c6.3 0 11.4 5.1 11.4 11.4s-5.1 11.4-11.4 11.4c-6.3 0-11.4-5.1-11.4-11.4 0-1.5 0.3-3 0.9-4.3 0.8 1.1 2.1 1.8 3.6 1.8 2.4 0 4.4-2 4.4-4.4 0-1.5-0.7-2.8-1.8-3.6 1.3-0.6 2.7-0.9 4.3-0.9z"></path>
</svg>
