<!-- Generated by IcoMoon.io -->
<svg version="1.1" xmlns="http://www.w3.org/2000/svg" width="32" height="32" viewBox="0 0 32 32">
<title>linkedin</title>
<path d="M29.639 0h-27.279c-0.007-0-0.015-0-0.024-0-1.281 0-2.321 1.030-2.337 2.307v27.39c0.018 1.276 1.056 2.303 2.334 2.303 0.009 0 0.019-0 0.028-0h27.277c0.005 0 0.010 0 0.016 0 1.283 0 2.326-1.031 2.345-2.309l0-0.002v-27.389c-0.024-1.275-1.063-2.3-2.342-2.3-0.007 0-0.013 0-0.020 0h0.001zM9.443 27.279h-4.721v-15.213h4.721zM7.216 9.967c-0.001 0-0.002 0-0.003 0-1.521 0-2.754-1.233-2.754-2.754s1.233-2.754 2.754-2.754c1.521 0 2.754 1.233 2.754 2.754 0 0.001 0 0.002 0 0.003v-0c0 0 0 0 0 0 0 1.52-1.232 2.751-2.751 2.751-0.003 0-0.006 0-0.008 0h0zM27.279 27.279h-4.721v-7.436c0-1.77-0.031-4.050-2.434-4.050s-2.812 1.93-2.812 3.934v7.551h-4.721v-15.213h4.459v2.098h0.063c0.632-1.196 2.177-2.455 4.48-2.455 4.797 0 5.687 3.148 5.687 7.221z"></path>
</svg>
