<!-- Generated by IcoMoon.io -->
<svg version="1.1" xmlns="http://www.w3.org/2000/svg" width="32" height="32" viewBox="0 0 32 32">
<title>netlify</title>
<path d="M23.135 11.17v0 0c-0.005-0.011-0.008-0.024-0.008-0.037s0.003-0.026 0.008-0.038l-0 0.001 0.645-3.945 3 3-3.18 1.35h-0.040s0 0 0 0c-0.114-0.127-0.25-0.233-0.402-0.311l-0.008-0.004zM27.5 10.865l3.23 3.235c0.67 0.67 1 1 1.13 1.395l0.045 0.175-7.705-3.275c-0.030 0-0.065-0.025-0.065-0.055s0.035-0.050 0.070-0.060v0zM31.77 16.71c-0.302 0.452-0.645 0.843-1.033 1.184l-0.007 0.006-3.64 3.645-4.71-1c-0.045 0-0.085 0-0.085-0.055-0.041-0.408-0.246-0.761-0.547-0.998l-0.003-0.002c-0.005-0.011-0.008-0.024-0.008-0.038s0.003-0.026 0.008-0.038l-0 0.001 0.87-5.415c0-0.045 0-0.090 0.050-0.090 0.395-0.052 0.734-0.257 0.963-0.552l0.002-0.003s0 0 0-0.025c0.013-0.005 0.027-0.007 0.043-0.007s0.030 0.003 0.043 0.007l-0.001-0 8.040 3.41zM26.27 22.385l-6 6 1-6.305c-0.001-0.004-0.002-0.008-0.002-0.012s0.001-0.009 0.002-0.013l-0 0s0.030-0.030 0.050-0.035v0c0.231-0.1 0.425-0.246 0.578-0.428l0.002-0.002c0.017-0.026 0.043-0.045 0.074-0.050l0.001-0h0.025l4.215 0.865zM19 29.65l-0.675 0.675-7.455-10.8c-0.014-0.012-0.024-0.030-0.025-0.050v-0c-0.002-0.005-0.003-0.011-0.003-0.017s0.001-0.012 0.003-0.018l-0 0 0.060-0.105v-0.030c0.010-0.021 0.025-0.038 0.044-0.050l0.001-0c0.009-0.003 0.019-0.005 0.030-0.005s0.021 0.002 0.031 0.006l-0.001-0 8.265 1.705c0.025 0.005 0.047 0.016 0.065 0.030l-0-0c0.002 0.005 0.004 0.011 0.004 0.017s-0.001 0.012-0.004 0.018l0-0c0.121 0.453 0.437 0.815 0.85 0.996l0.010 0.004s0 0.035 0 0.065c-0.001 0.006-0.002 0.013-0.002 0.020s0.001 0.014 0.002 0.021l-0-0.001c-0.105 0.63-1 6.090-1.24 7.56zM17.5 31.065c-0.302 0.361-0.678 0.651-1.105 0.847l-0.020 0.008c-0.149 0.049-0.321 0.078-0.5 0.078s-0.351-0.028-0.512-0.081l0.012 0.003c-0.375-0.12-0.725-0.455-1.375-1.13l-7.5-7.5 1.955-3.040c0.009-0.016 0.021-0.029 0.035-0.040l0-0s0.050 0 0.075 0c0.175 0.054 0.376 0.086 0.584 0.086 0.282 0 0.55-0.057 0.794-0.161l-0.013 0.005s0.045 0 0.060 0h0.025l7.5 10.9zM5.86 22.565l-1.72-1.725 3.395-1.45h0.030s0.045 0 0.060 0.055l0.105 0.15s0 0.030 0 0.040l-1.875 2.915zM3.36 20.065l-2.155-2.165c-0.37-0.37-0.64-0.64-0.825-0.87l6.62 1.375c0.040 0 0.085 0 0.085 0.055s-0.050 0.060-0.090 0.075v0zM0 15.935c0.009-0.159 0.036-0.307 0.079-0.449l-0.004 0.014c0.125-0.39 0.46-0.725 1.13-1.395l2.795-2.77q1.92 2.795 3.855 5.58c0 0.035 0.045 0.065 0 0.090-0.123 0.129-0.232 0.273-0.324 0.429l-0.006 0.011c-0.005 0.021-0.013 0.040-0.025 0.055l0-0h-0.035l-7.465-1.565zM4.735 10.6l3.765-3.75c0.35 0.155 1.635 0.7 2.775 1.18l1.905 0.81c0.026 0.006 0.047 0.023 0.060 0.045l0 0c0.002 0.007 0.004 0.016 0.004 0.025s-0.001 0.018-0.004 0.026l0-0.001c-0.024 0.107-0.038 0.231-0.038 0.357 0 0.456 0.18 0.869 0.474 1.173l-0-0.001c0.025 0.025 0 0.060 0 0.090v0l-3.8 5.895c-0.009 0.019-0.023 0.034-0.040 0.045l-0 0c-0.010 0.004-0.022 0.006-0.035 0.006s-0.025-0.002-0.036-0.006l0.001 0c-0.134-0.037-0.288-0.061-0.447-0.065l-0.003-0c-0.157 0.005-0.306 0.024-0.45 0.058l0.015-0.003c-0.007 0.003-0.014 0.005-0.023 0.005s-0.016-0.002-0.023-0.005l0 0c-0.014-0.011-0.026-0.024-0.035-0.039l-0-0.001-4-5.855zM9.235 6.060l4.845-4.85c0.675-0.675 1-1 1.395-1.13 0.149-0.049 0.321-0.078 0.5-0.078s0.351 0.028 0.512 0.081l-0.012-0.003c0.39 0.12 0.725 0.455 1.395 1.13l1.055 1.050-3.425 5.345c-0.008 0.017-0.020 0.030-0.035 0.040l-0 0c-0.011 0.006-0.024 0.009-0.037 0.009s-0.027-0.003-0.038-0.010l0 0c-0.152-0.048-0.326-0.075-0.506-0.075-0.416 0-0.797 0.145-1.097 0.388l0.003-0.003s-0.055 0-0.080 0l-4.455-1.89zM19.585 3l3.18 3.185-0.765 4.75s0 0.025 0 0.035c-0.011 0.014-0.027 0.023-0.045 0.025l-0 0c-0.174 0.055-0.325 0.131-0.46 0.228l0.005-0.003c-0.005 0.002-0.011 0.003-0.017 0.003s-0.012-0.001-0.018-0.003l0 0h-0.035l-4.85-2.060c-0.030 0-0.065-0.030-0.065-0.060-0.034-0.286-0.126-0.546-0.265-0.773l0.005 0.008c-0.025-0.040-0.050-0.080-0.030-0.115zM16.415 10.175l4.545 1.93s0.055 0 0.065 0.045c0.002 0.007 0.004 0.016 0.004 0.025s-0.001 0.018-0.004 0.026l0-0.001c-0.004 0.033-0.006 0.071-0.006 0.11s0.002 0.077 0.006 0.115l-0-0.005v0.125c0 0.035-0.035 0.045-0.060 0.060v0c-0.72 0.31-10.11 4.32-10.125 4.32-0.007 0.003-0.014 0.005-0.023 0.005s-0.016-0.002-0.023-0.005l0 0c-0.025 0 0-0.060 0.025-0.090v0l3.71-5.835c0-0.035 0.045-0.075 0.085-0.075h0.035c0.072 0.015 0.154 0.024 0.239 0.025h0.001c0 0 0 0 0.001 0 0.583 0 1.097-0.295 1.401-0.744l0.004-0.006 0.030-0.035s0.055 0 0.080 0zM11.17 17.84l10.235-4.37c0.004-0.002 0.010-0.003 0.015-0.003s0.011 0.001 0.015 0.003l-0-0c0.046 0.045 0.095 0.088 0.146 0.127l0.004 0.003s0.045 0.025 0.045 0.050v0l-0.86 5.435c0 0.040 0 0.090-0.050 0.090-0.488 0.032-0.907 0.304-1.141 0.698l-0.004 0.007c-0.009 0.020-0.023 0.037-0.040 0.050l-0 0c-0.009 0.003-0.019 0.005-0.030 0.005s-0.021-0.002-0.031-0.006l0.001 0-8.165-1.655s-0.13-0.435-0.14-0.435z"></path>
</svg>
