<!-- Generated by IcoMoon.io -->
<svg version="1.1" xmlns="http://www.w3.org/2000/svg" width="32" height="32" viewBox="0 0 32 32">
<title>nodejs</title>
<path d="M28.193 7.583l-11.024-6.401c-0.695-0.396-1.601-0.396-2.301 0l-11.142 6.401c-0.718 0.413-1.225 1.189-1.225 2.018v12.786c0 0.83 0.521 1.606 1.239 2.021l2.944 1.672c1.407 0.693 1.904 0.693 2.544 0.693 2.083 0 3.273-1.26 3.273-3.457v-12.623c0-0.178-0.093-0.444-0.268-0.444h-1.406c-0.178 0-0.576 0.265-0.576 0.443v12.622c0 0.974-0.881 1.943-2.527 1.12l-3.042-1.753c-0.106-0.058-0.181-0.173-0.181-0.295v-12.786c0-0.12 0.139-0.242 0.245-0.303l11.106-6.39c0.104-0.059 0.256-0.059 0.36 0l10.971 6.389c0.105 0.063 0.068 0.181 0.068 0.305v12.786c0 0.122 0.046 0.241-0.058 0.299l-11.021 6.394c-0.095 0.057-0.212 0.057-0.315 0l-2.827-1.687c-0.085-0.049-0.187-0.067-0.268-0.021-0.787 0.446-0.931 0.505-1.669 0.761-0.181 0.063-0.449 0.173 0.102 0.482l3.7 2.189c0.354 0.205 0.757 0.311 1.162 0.311 0.41 0 0.813-0.107 1.167-0.311l10.971-6.395c0.718-0.418 1.058-1.191 1.058-2.021v-12.786c0-0.83-0.34-1.604-1.057-2.018zM19.477 20.361c-2.931 0-3.577-0.809-3.793-2.267-0.025-0.157-0.158-0.345-0.318-0.345h-1.433c-0.177 0-0.32 0.215-0.32 0.392 0 1.866 1.015 4.128 5.863 4.128 3.51 0 5.522-1.364 5.522-3.777 0-2.393-1.617-3.021-5.020-3.471-3.441-0.455-3.79-0.684-3.79-1.491 0-0.665 0.296-1.551 2.843-1.551 2.276 0 3.115 0.489 3.46 2.023 0.029 0.144 0.161 0.248 0.31 0.248h1.439c0.088 0 0.173-0.036 0.235-0.099 0.060-0.068 0.092-0.153 0.084-0.245-0.223-2.642-1.978-3.873-5.528-3.873-3.158 0-5.041 1.334-5.041 3.569 0 2.425 1.874 3.095 4.905 3.394 3.626 0.355 3.908 0.886 3.908 1.599 0 1.239-0.994 1.767-3.327 1.767z"></path>
</svg>
