<!-- Generated by IcoMoon.io -->
<svg version="1.1" xmlns="http://www.w3.org/2000/svg" width="32" height="32" viewBox="0 0 32 32">
<title>nuxtjs</title>
<path d="M9.75 27.094c-0.021-0.034-0.042-0.075-0.061-0.118l-0.003-0.007c-0.087-0.196-0.137-0.424-0.137-0.663 0-0.098 0.008-0.194 0.025-0.288l-0.001 0.010h-7.572l11.25-19.791 3.686 6.489 1.070-1.894-3.217-5.669c-0.090-0.162-0.634-1.038-1.571-1.038-0.422 0-1.030 0.184-1.524 1.050l-11.39 20.027c-0.098 0.174-0.568 1.084-0.1 1.891 0.212 0.366 0.666 0.802 1.666 0.802h9.54c-0.992 0-1.454-0.43-1.66-0.802z"></path>
<path d="M31.677 25.203l-9.36-16.489c-0.096-0.174-0.636-1.051-1.576-1.051-0.424 0-1.031 0.18-1.525 1.047l-1.21 2.125 1.078 1.894 1.666-2.955 9.26 16.25h-3.521c0.014 0.079 0.022 0.17 0.022 0.262 0 0.193-0.035 0.379-0.098 0.55l0.004-0.011c-0.023 0.063-0.048 0.117-0.077 0.168l0.003-0.006-0.030 0.060c-0.474 0.808-1.5 0.85-1.698 0.85h5.51c0.204 0 1.224-0.043 1.698-0.85 0.209-0.367 0.359-0.985-0.145-1.845z"></path>
<path d="M26.313 27.046l0.030-0.060c0.026-0.046 0.051-0.099 0.071-0.155l0.003-0.008c0.060-0.16 0.094-0.346 0.094-0.539 0-0.093-0.008-0.183-0.023-0.272l0.001 0.009c-0.056-0.309-0.163-0.584-0.312-0.831l0.006 0.011-7.093-12.477-1.084-1.894-1.078 1.894-7.089 12.477c-0.13 0.237-0.226 0.513-0.272 0.806l-0.002 0.014c-0.017 0.089-0.026 0.191-0.026 0.295 0 0.233 0.048 0.456 0.134 0.657l-0.004-0.011c0.022 0.050 0.043 0.091 0.067 0.13l-0.003-0.005c0.213 0.366 0.666 0.802 1.666 0.802h13.205c0.21 0.005 1.234-0.038 1.707-0.845zM18.006 14.625l6.483 11.404h-12.961z"></path>
</svg>
