<!-- Generated by IcoMoon.io -->
<svg version="1.1" xmlns="http://www.w3.org/2000/svg" width="32" height="32" viewBox="0 0 32 32">
<title>postgresql</title>
<path d="M15.525 20.825c0.15-0.2 0.1-0.45 0.050-0.575-0.075-0.25-0.25-0.5-0.45-0.575-0.1-0.050-0.2-0.075-0.275-0.075-0.050 0-0.175 0-0.4 0.25-0.2 0.225-0.325 0.375-0.45 0.55-0.525 0.65-0.75 0.875-2.3 1.2-0.375 0.075-0.575 0.15-0.675 0.2 0.125 0.1 0.35 0.225 0.625 0.275 0.4 0.1 0.8 0.15 1.175 0.15 1.125 0 2.025-0.45 2.7-1.4z"></path>
<path d="M23.4 20.825c-0.075-1.65 0.825-1.925 1.3-2.075-0.075-0.1-0.15-0.225-0.25-0.325-0.275-0.35-0.65-0.825-0.95-1.525-0.050-0.1-0.2-0.375-0.35-0.65-0.9-1.6-2.75-4.95-1.55-6.65 0.55-0.8 1.65-1.1 3.275-0.925-0.475-1.45-2.75-6-8.15-6.1-1.625-0.025-2.95 0.475-3.95 1.475-1.625 1.625-2.025 4.2-2.125 5.525 0.1-0.050 0.175-0.1 0.3-0.15 0.4-0.2 1.2-0.55 2.075-0.65 1.45-0.15 2.4 0.5 2.675 1.8 0.775 3.55 0.050 5.125-0.45 6.275-0.1 0.225-0.175 0.425-0.25 0.6l-0.075 0.175c-0.15 0.425-0.3 0.825-0.4 1.175 0.1-0.025 0.2-0.050 0.325-0.050 0.25 0 0.45 0.075 0.575 0.15 0.425 0.175 0.775 0.6 0.925 1.125 0.025 0.075 0.050 0.175 0.050 0.25 0.025 0.050 0.025 0.1 0.025 0.125-0.1 3.6 0.050 6.85 0.325 7.575 0.45 1.125 1.125 2.125 3.075 1.7 1.825-0.4 2.525-1.1 2.825-2.875 0.225-1.325 0.7-5.175 0.75-5.975z"></path>
<path d="M29 19.7c-1.775 0.375-3 0.325-3.7-0.15-0.050-0.025-0.1-0.075-0.125-0.1-0.075 0.025-0.15 0.050-0.2 0.075-0.4 0.1-0.8 0.225-0.75 1.275 0.075 0.1 0.525 0.25 1.425 0.2 0.8-0.025 1.65-0.2 2.175-0.45 0.65-0.3 1.1-0.65 1.325-0.875l-0.15 0.025z"></path>
<path d="M10.925 18.175c-0.95-0.975-1.375-2.35-1.175-3.725 0.2-1.5 0.125-2.85 0.1-3.55 0-0.2-0.025-0.325-0.025-0.425 0-0.25-0.075-4.5 2.4-6.975 0.025-0.025 0.075-0.075 0.1-0.1-1.475-0.475-5.275-1.5-7.575 0.15-1.4 1-2.050 2.85-1.925 5.5 0.050 0.825 0.575 3.825 1.475 6.775 1.050 3.425 2.25 5.6 3.275 5.95 0.15 0.050 0.65 0.225 1.35-0.625 1-1.2 1.925-2.2 2.35-2.65-0.15-0.1-0.25-0.2-0.35-0.325z"></path>
<path d="M22.25 10.050c-0.9 1.3 0.85 4.45 1.6 5.8 0.2 0.35 0.325 0.6 0.4 0.75 0.075 0.2 0.175 0.375 0.25 0.525 0.55-1.125 0.425-2.25 0.275-3.35-0.075-0.525-0.125-1.075-0.125-1.625 0.025-0.55 0.075-1 0.15-1.425s0.125-0.8 0.125-1.25c-1.375-0.175-2.275 0.025-2.675 0.575zM23.95 10.475c-0.075 0.075-0.25 0.225-0.5 0.275h-0.1c-0.35 0-0.65-0.275-0.675-0.45-0.025-0.2 0.325-0.375 0.675-0.425 0.075 0 0.15-0.025 0.225-0.025 0.3 0 0.525 0.1 0.525 0.225 0.025 0.125-0.025 0.275-0.15 0.4z"></path>
<path d="M20.25 2.5c1.55 0.65 2.675 1.65 3.425 2.55 1.375 1.6 2.050 3.35 2.1 3.95 0 0.1 0 0.15-0.025 0.225 0.025 0.625-0.050 1.15-0.125 1.65-0.075 0.4-0.125 0.825-0.15 1.325-0.025 0.475 0.050 0.975 0.1 1.5 0.15 1.275 0.325 2.725-0.575 4.175 0.025 0.025 0.050 0.050 0.050 0.075 0.050 0.050 0.1 0.1 0.125 0.175 3.45-5.4 4.625-11.675 3.55-13.075-1.375-1.825-3.35-2.75-5.875-2.8-1.025-0.025-1.95 0.1-2.6 0.25z"></path>
<path d="M14.9 10.75c-0.15-0.65-0.475-1.025-1.050-1.15-1.15-0.25-2.875 0.625-3.25 0.95l0.025 0.275c0.050 0.75 0.125 2.125-0.1 3.725-0.15 1.15 0.2 2.275 0.95 3.075 0.6 0.625 1.4 0.975 2.225 0.975h0.050c0.1-0.4 0.25-0.8 0.4-1.25l0.075-0.175c0.075-0.225 0.175-0.425 0.275-0.65 0.5-1.075 1.125-2.45 0.4-5.775zM13.775 11.1c-0.025 0-0.050 0-0.075 0h-0.1c-0.225-0.025-0.45-0.175-0.6-0.375-0.050-0.075-0.15-0.225-0.125-0.35 0.025-0.175 0.2-0.275 0.5-0.3 0.025 0 0.075 0 0.1 0h0.025c0.075 0 0.15 0 0.25 0.025 0.2 0.025 0.375 0.075 0.5 0.15 0.2 0.125 0.225 0.275 0.225 0.35-0.025 0.2-0.325 0.475-0.7 0.5z"></path>
<path d="M30.825 19.1c-0.125-0.375-0.575-1.225-2.15-0.9-0.8 0.15-1.375 0.2-1.75 0.2 1.425-2.375 2.6-5.1 3.25-7.65 0.475-1.825 1.075-5.1-0.15-6.675-1.7-2.175-4.2-3.375-7.225-3.4-1.65-0.025-3.075 0.3-3.8 0.525-0.7-0.125-1.45-0.175-2.225-0.2-1.45 0-2.75 0.3-3.85 0.975-1.65-0.575-6.125-1.8-9.1 0.3-1.875 1.325-2.75 3.65-2.575 6.95 0.050 1.025 0.625 4.175 1.55 7.175 0.525 1.7 1.075 3.125 1.65 4.225 0.8 1.525 1.65 2.425 2.625 2.75 0.55 0.175 1.55 0.3 2.6-0.625 0.35 0.475 1 0.8 1.6 0.95 0.85 0.225 1.675 0.25 2.45 0.125 0.45-0.075 0.85-0.225 1.25-0.4 0.025 0.25 0.025 0.5 0.025 0.675 0 0.25 0.025 0.5 0.025 0.725 0.050 1.55 0.175 2.75 0.475 3.6l0.075 0.2c0.175 0.475 0.425 1.25 1.075 1.875 0.425 0.4 1.125 0.825 2.225 0.825 0.3 0 0.65-0.050 1.025-0.1 1.15-0.25 2.425-0.6 3.35-1.925 0.9-1.25 1.325-3.15 1.4-6.15l0.050-0.5 0.3 0.025h0.050c1.15 0.050 2.55-0.2 3.425-0.6 0.675-0.325 2.85-1.475 2.35-2.975zM28.125 21.25c-0.675 0.325-1.8 0.525-2.75 0.525-0.475 0-0.925-0.050-1.25-0.15-0.175 1.425-0.5 4.15-0.7 5.3-0.375 2.1-1.3 3.050-3.45 3.5-0.375 0.1-0.7 0.125-1 0.125-2.050 0-2.7-1.625-2.975-2.3-0.325-0.825-0.45-3.6-0.425-6.325-0.75 0.7-1.675 1.075-2.775 1.075-0.45 0-0.9-0.050-1.375-0.175-0.5-0.125-1.3-0.5-1.3-1.1 0.025-0.675 1-0.875 1.375-0.95 1.35-0.275 1.425-0.4 1.85-0.925 0.075-0.1 0.175-0.225 0.3-0.375 0-0.025 0-0.050 0-0.075-0.625-0.025-1.2-0.175-1.75-0.475-0.35 0.35-1.35 1.425-2.4 2.7-0.625 0.75-1.225 0.975-1.7 0.975-0.2 0-0.375-0.025-0.525-0.075-1.325-0.45-2.6-2.625-3.775-6.475-0.875-2.925-1.45-5.975-1.5-6.975-0.15-2.95 0.6-5.025 2.25-6.2 2.975-2.1 7.775-0.45 8.775-0.075 1.025-0.7 2.275-1.050 3.725-1.025 0.775 0 1.5 0.1 2.175 0.275 0 0 0.025 0 0.075-0.025 0.425-0.15 1.925-0.6 3.775-0.575 2.775 0.025 5.050 1.1 6.625 3.1 0.725 0.95 0.725 3.125 0 5.975-0.725 2.825-2.075 5.85-3.725 8.35 0.225 0.2 0.975 0.525 3.15 0.075 0.675-0.15 1.1-0.025 1.225 0.35 0.25 0.75-1.15 1.625-1.925 1.95z"></path>
</svg>
