<!-- Generated by IcoMoon.io -->
<svg version="1.1" xmlns="http://www.w3.org/2000/svg" width="32" height="32" viewBox="0 0 32 32">
<title>prettier</title>
<path d="M23.488 6.1h1.8c0.35 0 0.625 0.275 0.625 0.625v0.275c0 0.35-0.275 0.625-0.625 0.625h-1.8c-0.35 0-0.625-0.275-0.625-0.625v-0.275c0-0.35 0.275-0.625 0.625-0.625z"></path>
<path d="M0.625 30.475h7.887c0.35 0 0.625 0.275 0.625 0.625v0.275c0 0.35-0.275 0.625-0.625 0.625h-7.888c-0.35 0-0.625-0.275-0.625-0.625v-0.275c0-0.35 0.275-0.625 0.625-0.625z"></path>
<path d="M18.913 18.288h4.837c0.35 0 0.625 0.275 0.625 0.625v0.275c0 0.35-0.275 0.625-0.625 0.625h-4.85c-0.35 0-0.625-0.275-0.625-0.625v-0.275c0.012-0.35 0.288-0.625 0.637-0.625z"></path>
<path d="M9.762 18.288h6.375c0.35 0 0.625 0.275 0.625 0.625v0.275c0 0.35-0.275 0.625-0.625 0.625h-6.375c-0.35 0-0.625-0.275-0.625-0.625v-0.275c0-0.35 0.287-0.625 0.625-0.625z"></path>
<path d="M0.625 18.288h6.375c0.35 0 0.625 0.275 0.625 0.625v0.275c0 0.35-0.275 0.625-0.625 0.625h-6.375c-0.35 0-0.625-0.275-0.625-0.625v-0.275c0-0.35 0.275-0.625 0.625-0.625z"></path>
<path d="M0.625 24.375h7.887c0.35 0 0.625 0.275 0.625 0.625v0.275c0 0.35-0.275 0.625-0.625 0.625h-7.888c-0.35 0-0.625-0.275-0.625-0.625v-0.275c0-0.337 0.275-0.625 0.625-0.625z"></path>
<path d="M0.625 12.188h7.887c0.35 0 0.625 0.275 0.625 0.625v0.275c0 0.35-0.275 0.625-0.625 0.625h-7.888c-0.35 0-0.625-0.275-0.625-0.625v-0.275c0-0.338 0.275-0.625 0.625-0.625z"></path>
<path d="M8.25 3.050h15.5c0.35 0 0.625 0.275 0.625 0.625v0.275c0 0.35-0.275 0.625-0.625 0.625h-15.5c-0.35 0-0.625-0.275-0.625-0.625v-0.275c0-0.35 0.275-0.625 0.625-0.625z"></path>
<path d="M0.625 3.050h4.85c0.35 0 0.625 0.275 0.625 0.625v0.275c0 0.35-0.275 0.625-0.625 0.625h-4.85c-0.35 0-0.625-0.275-0.625-0.625v-0.275c0-0.35 0.275-0.625 0.625-0.625z"></path>
<path d="M6.725 27.425h1.8c0.35 0 0.625 0.275 0.625 0.625v0.275c0 0.35-0.275 0.625-0.625 0.625h-1.8c-0.35 0-0.625-0.275-0.625-0.625v-0.275c0-0.337 0.275-0.625 0.625-0.625z"></path>
<path d="M6.725 9.137h1.8c0.35 0 0.625 0.275 0.625 0.625v0.275c0 0.35-0.275 0.625-0.625 0.625h-1.8c-0.35 0-0.625-0.275-0.625-0.625v-0.275c0-0.338 0.275-0.625 0.625-0.625z"></path>
<path d="M0.625 27.425h3.325c0.35 0 0.625 0.275 0.625 0.625v0.275c0 0.35-0.275 0.625-0.625 0.625h-3.325c-0.35 0-0.625-0.275-0.625-0.625v-0.275c0-0.337 0.275-0.625 0.625-0.625z"></path>
<path d="M0.625 9.137h3.325c0.35 0 0.625 0.275 0.625 0.625v0.275c0 0.35-0.275 0.625-0.625 0.625h-3.325c-0.35 0-0.625-0.275-0.625-0.625v-0.275c0-0.338 0.275-0.625 0.625-0.625z"></path>
<path d="M12.813 15.238h12.462c0.35 0 0.625 0.275 0.625 0.625v0.275c0 0.35-0.275 0.625-0.625 0.625h-12.463c-0.35 0-0.625-0.275-0.625-0.625v-0.275c0-0.35 0.287-0.625 0.625-0.625z"></path>
<path d="M5.2 15.238h4.85c0.35 0 0.625 0.275 0.625 0.625v0.275c0 0.35-0.275 0.625-0.625 0.625h-4.85c-0.35 0-0.625-0.275-0.625-0.625v-0.275c0-0.35 0.275-0.625 0.625-0.625z"></path>
<path d="M0.625 15.238h1.8c0.35 0 0.625 0.275 0.625 0.625v0.275c0 0.35-0.275 0.625-0.625 0.625h-1.8c-0.35 0-0.625-0.275-0.625-0.625v-0.275c0-0.35 0.275-0.625 0.625-0.625z"></path>
<path d="M14.338 6.1h6.375c0.35 0 0.625 0.275 0.625 0.625v0.275c0 0.35-0.275 0.625-0.625 0.625h-6.375c-0.35 0-0.625-0.275-0.625-0.625v-0.275c0-0.35 0.287-0.625 0.625-0.625z"></path>
<path d="M0.625 6.1h10.938c0.35 0 0.625 0.275 0.625 0.625v0.275c0 0.35-0.275 0.625-0.625 0.625h-10.938c-0.35 0-0.625-0.275-0.625-0.625v-0.275c0-0.35 0.275-0.625 0.625-0.625z"></path>
<path d="M5.2 21.337h13.988c0.35 0 0.625 0.275 0.625 0.625v0.275c0 0.35-0.275 0.625-0.625 0.625h-13.988c-0.35 0-0.625-0.275-0.625-0.625v-0.275c0-0.35 0.275-0.625 0.625-0.625z"></path>
<path d="M0.625 21.337h1.8c0.35 0 0.625 0.275 0.625 0.625v0.275c0 0.35-0.275 0.625-0.625 0.625h-1.8c-0.35 0-0.625-0.275-0.625-0.625v-0.275c0-0.35 0.275-0.625 0.625-0.625z"></path>
<path d="M18.913 9.137h7.887c0.35 0 0.625 0.275 0.625 0.625v0.275c0 0.35-0.275 0.625-0.625 0.625h-7.887c-0.35 0-0.625-0.275-0.625-0.625v-0.275c0-0.338 0.275-0.625 0.625-0.625z"></path>
<path d="M18.913 12.188h7.887c0.35 0 0.625 0.275 0.625 0.625v0.275c0 0.35-0.275 0.625-0.625 0.625h-7.887c-0.35 0-0.625-0.275-0.625-0.625v-0.275c0-0.338 0.275-0.625 0.625-0.625z"></path>
<path d="M0.625 0h18.563c0.35 0 0.625 0.275 0.625 0.625v0.275c0 0.35-0.275 0.625-0.625 0.625h-18.563c-0.35 0-0.625-0.275-0.625-0.625v-0.275c0-0.35 0.275-0.625 0.625-0.625z"></path>
</svg>
