<!-- Generated by IcoMoon.io -->
<svg version="1.1" xmlns="http://www.w3.org/2000/svg" width="883" height="1024" viewBox="0 0 883 1024">
<title></title>
<g id="icomoon-ignore">
</g>
<path d="M488.467 0c263.319 0 394.173 125.326 394.173 325.521 0 149.739-92.081 247.392-216.472 263.67 105.005 21.16 166.389 81.382 177.7 200.195l1.637 21.85 1.429 20.426 1.235 19.107 0.858 14.407 0.921 16.999 0.478 9.701 0.681 15.412 0.549 14.556 0.272 8.367 0.368 13.406 0.317 15.329 0.115 7.407 0.208 21.465 0.067 22.398 0.004 13.392h-271.544l0.014-5.586 0.097-10.848 0.162-10.568 0.47-25.596 0.119-8.581 0.093-13.455-0.013-8.604-0.079-9.024-0.11-7.082-0.223-9.915-0.322-10.515-0.432-11.18-0.554-11.911-0.326-6.25-0.555-9.767-0.639-10.261-0.99-14.498-0.853-11.522c-0.245-3.554-0.528-7.024-0.851-10.412l-0.696-6.667c-8.967-78.705-40.185-110.873-93.653-121.602l-4.507-0.845c-3.039-0.531-6.147-0.998-9.323-1.405l-4.816-0.567c-0.811-0.087-1.627-0.171-2.447-0.251l-4.971-0.438-5.074-0.357-5.177-0.279-5.222-0.202-5.323-0.131-5.424-0.064-429.833-0.008v-213.214h440.007c7.194 0 14.166-0.136 20.916-0.415l6.675-0.326 6.527-0.422 6.379-0.519c1.051-0.095 2.095-0.193 3.134-0.296l6.156-0.666c4.055-0.478 8.010-1.022 11.867-1.634l5.711-0.97c71.4-12.945 107.099-50.847 107.099-124.81 0-83.005-58.153-133.311-174.464-133.311h-440.007v-208.637h488.467zM287.121 864.661c35.627 0 50.533 19.782 55.843 38.716l0.701 2.723 0.575 2.697 0.374 2.13 0.16 1.053 0.268 2.079 0.202 2.037 0.077 1 0.11 1.959 0.033 0.957 0.026 1.866v101.73h-345.491v-158.948h287.121z"></path>
</svg>
