<!-- Generated by IcoMoon.io -->
<svg version="1.1" xmlns="http://www.w3.org/2000/svg" width="32" height="32" viewBox="0 0 32 32">
<title>rocketseat</title>
<path d="M28.644 0.624l-4.226-0.616c-0.021-0.004-0.045-0.007-0.070-0.007-0.087 0-0.168 0.031-0.231 0.082l0.001-0.001-1.8 2.315c-0.078 0.095-0.125 0.218-0.125 0.352 0 0.059 0.009 0.116 0.026 0.17l-0.001-0.004c0.050 0.173-0.1 0.321-0.275 0.296l-1.476-0.32c-0.042-0.010-0.089-0.016-0.138-0.016-0.197 0-0.372 0.092-0.486 0.236l-0.001 0.001-5.851 7.393c-0.101 0.148-0.301 0.198-0.475 0.123l-2.226-0.985c-0.076-0.038-0.165-0.061-0.259-0.061-0.128 0-0.246 0.041-0.342 0.111l0.002-0.001-1.126 0.764c-0.099 0.069-0.222 0.11-0.355 0.11-0.098 0-0.191-0.022-0.274-0.062l0.004 0.002-0.551-0.271c-0.079-0.039-0.173-0.062-0.272-0.062-0.286 0-0.527 0.191-0.602 0.453l-0.001 0.004-0.4 1.749c-0.1 0.419 0.075 0.838 0.45 1.060l0.851 0.518 2.726 1.651 1.325 0.813c0.376 0.222 0.85 0.173 1.176-0.098l2.225-1.923c0.175-0.148 0.451-0.198 0.65-0.073l0.676 0.344c0.078 0.043 0.172 0.068 0.271 0.068 0.157 0 0.3-0.063 0.404-0.166l-0 0 1.126-1.035c0.104-0.097 0.243-0.156 0.397-0.156 0.092 0 0.179 0.021 0.256 0.059l-0.003-0.002 1.675 0.764c0.25 0.122 0.551 0.049 0.726-0.172l0.776-0.986 5.877-7.417c0.082-0.101 0.131-0.232 0.131-0.374 0-0.289-0.205-0.53-0.477-0.586l-0.004-0.001-1.301-0.296c-0.275-0.050-0.4-0.395-0.2-0.592l2.026-2.488c0.2-0.296 0.075-0.616-0.226-0.665zM9.264 15.557c-0.125-0.073-0.25 0.049-0.2 0.172l0.625 1.626c0.051 0.123 0.051 0.247 0.025 0.37l-0.551 2.12c-0.024 0.148 0.025 0.296 0.125 0.37l1.576 1.208c0.151 0.099 0.35 0.099 0.475-0.024l1.651-1.431c0.1-0.073 0.225-0.122 0.325-0.147l1.876-0.198c0.125-0.024 0.175-0.198 0.050-0.271l-5.976-3.795zM8.714 21.028c-0.065-0.046-0.146-0.074-0.234-0.074-0.051 0-0.099 0.009-0.144 0.026l0.003-0.001-1.325 0.64c-0.075 0.024-0.125 0.099-0.175 0.173l-2.826 6.875v0.049c0.025 0.024 0.050 0.050 0.101 0.050l0.649-0.247h0.075c0.025 0.024 0.050 0.073 0.025 0.099l-2.026 3.277c-0.050 0.073 0.051 0.148 0.101 0.073l7.327-7.245c0.063-0.065 0.108-0.149 0.125-0.243l0-0.003 0.15-1.873c0-0.001 0-0.002 0-0.004 0-0.115-0.048-0.219-0.125-0.293l-0-0-1.701-1.281z"></path>
</svg>
