<!-- Generated by IcoMoon.io -->
<svg version="1.1" xmlns="http://www.w3.org/2000/svg" width="898" height="1024" viewBox="0 0 898 1024">
<title></title>
<g id="icomoon-ignore">
</g>
<path d="M784.833 200.942c-0.701-5.26-5.26-8.066-8.767-8.416-3.858-0.351-82.060-5.962-82.060-5.962s-54.356-54.005-60.318-59.967c-0.701-0.701-1.403-1.052-2.104-1.753-0.351 0-0.701-0.351-0.701-0.351-0.701-0.351-1.052-0.701-1.753-0.701-0.351 0-0.701-0.351-1.052-0.351-0.701-0.351-1.753-0.351-2.455-0.701-5.26-1.052-11.222 0-14.027 1.052-0.701 0.351-11.923 3.507-30.51 9.468-18.236-52.252-50.148-100.296-106.608-100.296-1.403 0-3.156 0-4.91 0-16.132-21.041-35.77-30.51-52.953-30.51-131.507 0-194.279 164.121-213.918 247.584-51.2 15.781-87.321 27.003-91.879 28.405-28.405 8.767-29.458 9.819-32.964 36.822-3.156 20.69-77.852 597.216-77.852 597.216l581.085 108.712 314.915-68.033c0 0.351-110.466-746.959-111.167-752.219zM465.359 163.419c0 2.104 0 3.858 0 5.611-31.912 9.819-66.63 20.69-101.699 31.562 19.638-75.397 56.11-111.868 88.373-125.545 8.066 19.989 13.326 49.096 13.326 88.373zM412.756 37.874c5.611 0 11.222 1.753 16.833 5.611-42.082 19.638-87.321 69.786-106.258 169.381-27.704 8.767-55.058 17.184-80.307 24.899 22.444-75.748 75.397-199.89 169.732-199.89zM435.551 482.192c0 0-34.016-18.236-75.748-18.236-61.019 0-64.175 38.225-64.175 48.044 0 52.603 137.468 72.942 137.468 196.384 0 97.14-61.721 159.912-144.833 159.912-99.595 0-150.795-62.071-150.795-62.071l26.652-88.373c0 0 52.252 44.888 96.789 44.888 28.756 0 40.679-22.795 40.679-39.277 0-68.734-112.921-71.89-112.921-184.811 0-95.036 68.384-187.266 206.203-187.266 52.953 0 79.255 15.079 79.255 15.079l-38.575 115.726zM499.726 158.51c0-3.507 0-7.014 0-10.521 0-32.614-4.559-58.564-11.573-79.255 29.107 3.507 48.395 36.822 61.019 74.696-15.079 4.208-31.562 9.468-49.447 15.079z"></path>
</svg>
