<!-- Generated by IcoMoon.io -->
<svg version="1.1" xmlns="http://www.w3.org/2000/svg" width="32" height="32" viewBox="0 0 32 32">
<title>slack</title>
<path stroke-linejoin="round" stroke-linecap="round" stroke-miterlimit="4" stroke-width="0.3951" stroke="#000" fill="#000" d="M8.89 20.157c0-1.864 1.41-3.365 3.161-3.365s3.161 1.501 3.161 3.365v8.284c0 1.864-1.41 3.365-3.161 3.365s-3.161-1.501-3.161-3.365z"></path>
<path stroke-linejoin="round" stroke-linecap="round" stroke-miterlimit="4" stroke-width="0.3951" stroke="#000" fill="#000" d="M20.157 23.114c-1.864 0-3.365-1.41-3.365-3.161s1.501-3.161 3.365-3.161h8.284c1.864 0 3.365 1.41 3.365 3.161s-1.501 3.161-3.365 3.161z"></path>
<path stroke-linejoin="round" stroke-linecap="round" stroke-miterlimit="4" stroke-width="0.3951" stroke="#000" fill="#000" d="M16.792 3.563c0-1.864 1.41-3.365 3.161-3.365s3.161 1.501 3.161 3.365v8.284c0 1.864-1.41 3.365-3.161 3.365s-3.161-1.501-3.161-3.365z"></path>
<path stroke-linejoin="round" stroke-linecap="round" stroke-miterlimit="4" stroke-width="0.3951" stroke="#000" fill="#000" d="M3.563 15.212c-1.864 0-3.365-1.41-3.365-3.161s1.501-3.161 3.365-3.161h8.284c1.864 0 3.365 1.41 3.365 3.161s-1.501 3.161-3.365 3.161z"></path>
<path stroke-linejoin="miter" stroke-linecap="round" stroke-miterlimit="4" stroke-width="0.5" stroke="#000" fill="#000" d="M16.792 28.645c0 0.002 0 0.004 0 0.007 0 1.742 1.412 3.154 3.154 3.154 0.002 0 0.005 0 0.007 0h-0c1.751 0 3.161-1.41 3.161-3.161 0-0.002 0-0.004 0-0.007 0-1.742-1.412-3.154-3.154-3.154-0.002 0-0.005 0-0.007 0h-3.16z"></path>
<path stroke-linejoin="miter" stroke-linecap="round" stroke-miterlimit="4" stroke-width="0.5" stroke="#000" fill="#000" d="M28.645 15.212h-3.161v-3.161c0-1.751 1.41-3.161 3.161-3.161s3.161 1.41 3.161 3.161-1.41 3.161-3.161 3.161z"></path>
<path stroke-linejoin="miter" stroke-linecap="round" stroke-miterlimit="4" stroke-width="0.5" stroke="#000" fill="#000" d="M3.358 16.792h3.161v3.161c0 1.751-1.41 3.161-3.161 3.161-0.002 0-0.004 0-0.007 0-1.742 0-3.154-1.412-3.154-3.154 0-0.002 0-0.005 0-0.007v0c0-1.751 1.41-3.161 3.161-3.161z"></path>
<path stroke-linejoin="miter" stroke-linecap="round" stroke-miterlimit="4" stroke-width="0.5" stroke="#000" fill="#000" d="M15.212 3.358v3.161h-3.161c-0.002 0-0.004 0-0.007 0-1.742 0-3.154-1.412-3.154-3.154 0-0.002 0-0.005 0-0.007v0c0-1.751 1.41-3.161 3.161-3.161 0.002 0 0.004 0 0.007 0 1.742 0 3.154 1.412 3.154 3.154 0 0.002 0 0.005 0 0.007v-0z"></path>
</svg>
