<!-- Generated by IcoMoon.io -->
<svg version="1.1" xmlns="http://www.w3.org/2000/svg" width="32" height="32" viewBox="0 0 32 32">
<title>yii</title>
<path d="M19.782 8.921c-1.358-3.976 2.715-8.339 6.012-8.436 2.036 1.067 3.685 3.782 3.685 7.564-0.291 4.558-3.491 8.533-7.079 12.218-0.194-4.558-1.164-7.37-2.618-11.345z"></path>
<path d="M11.927 30.642c-0.582-4.461 1.261-8.339 3.103-10.667 0.873-1.067 1.552-2.133 2.036-3.006 0.97 0.388 3.491 1.745 4.945 3.879-0.291 3.2-2.618 9.018-10.085 9.794z"></path>
<path d="M9.115 13.673c-5.915-1.649-7.37-6.885-7.176-10.376 5.721-2.327 11.927 0.097 15.515 5.042 2.521 3.491 4.073 7.951 4.364 11.927-1.745-2.23-3.879-3.588-6.691-4.655-1.745-0.776-3.491-1.164-6.012-1.939z"></path>
</svg>
